<?xml version="1.0" encoding="iso-8859-1"?>
<!-- Generator: Adobe Illustrator 16.0.0, SVG Export Plug-In . SVG Version: 6.00 Build 0)  -->
<!DOCTYPE svg PUBLIC "-//W3C//DTD SVG 1.1//EN" "http://www.w3.org/Graphics/SVG/1.1/DTD/svg11.dtd">
<svg version="1.1" xmlns="http://www.w3.org/2000/svg" xmlns:xlink="http://www.w3.org/1999/xlink" x="0px" y="0px" width="10px"
	 height="10px" viewBox="0 0 10 10" enable-background="new 0 0 10 10" xml:space="preserve">
<g id="Vrstva_2" display="none">
</g>
<g id="Vrstva_1">
	<g>
		<path fill="#FFFFFF" d="M3.7,6.579c-0.016,0.01-0.032,0.008-0.054-0.004l-2.24-1.098C1.377,5.459,1.362,5.434,1.362,5.401V5.103
			c0-0.034,0.015-0.059,0.043-0.075l2.24-1.098l0.032-0.014c0.013,0,0.023,0.006,0.031,0.016c0.007,0.011,0.012,0.024,0.012,0.041
			v0.306c0,0.033-0.014,0.059-0.043,0.074l-1.859,0.88c-0.017,0.014-0.017,0.025,0,0.038l1.859,0.879
			c0.029,0.018,0.043,0.042,0.043,0.075v0.307C3.721,6.552,3.713,6.566,3.7,6.579z"/>
		<path fill="#FFFFFF" d="M4.086,6.955c-0.01-0.012-0.013-0.029-0.009-0.05l1.129-4.243c0.008-0.037,0.031-0.056,0.068-0.056h0.312
			c0.021,0,0.036,0.005,0.046,0.019c0.012,0.012,0.015,0.029,0.01,0.049L4.514,6.918C4.505,6.955,4.482,6.974,4.445,6.974H4.133
			C4.111,6.974,4.096,6.968,4.086,6.955z"/>
		<path fill="#FFFFFF" d="M6.248,6.587c-0.012,0-0.023-0.005-0.031-0.016c-0.008-0.01-0.013-0.023-0.013-0.04V6.224
			c0-0.032,0.015-0.057,0.044-0.075L8.106,5.27c0.019-0.012,0.019-0.024,0-0.038l-1.858-0.88C6.219,4.337,6.204,4.312,6.204,4.278
			V3.972c0-0.021,0.008-0.036,0.021-0.047c0.016-0.01,0.033-0.01,0.055,0.004l2.239,1.098c0.028,0.016,0.043,0.041,0.043,0.075
			v0.299c0,0.033-0.015,0.058-0.043,0.075L6.28,6.574L6.248,6.587z"/>
	</g>
</g>
</svg>
